<svg width="375" height="812" viewBox="0 0 375 812" fill="none" xmlns="http://www.w3.org/2000/svg">
<g clip-path="url(#clip0_1_141)">
<rect width="375" height="812" fill="url(#paint0_linear_1_141)"/>
<path fill-rule="evenodd" clip-rule="evenodd" d="M333.718 148C375.58 148 409.516 113.974 409.516 72C409.516 30.0264 375.58 -4 333.718 -4C291.856 -4 257.92 30.0264 257.92 72C257.92 113.974 291.856 148 333.718 148ZM333.718 178C392.105 178 439.436 130.542 439.436 72C439.436 13.4578 392.105 -34 333.718 -34C275.332 -34 228 13.4578 228 72C228 130.542 275.332 178 333.718 178Z" fill="url(#paint1_linear_1_141)" fill-opacity="0.03"/>
<path fill-rule="evenodd" clip-rule="evenodd" d="M232.759 696.228C200.495 733.096 204.149 789.209 240.919 821.558C277.689 853.908 333.652 850.244 365.915 813.376C398.179 776.508 394.526 720.396 357.755 688.046C320.985 655.697 265.022 659.36 232.759 696.228ZM206.478 673.107C161.479 724.528 166.574 802.79 217.859 847.909C269.144 893.028 347.197 887.919 392.196 836.497C437.195 785.076 432.1 706.814 380.815 661.695C329.53 616.576 251.477 621.685 206.478 673.107Z" fill="url(#paint2_linear_1_141)" fill-opacity="0.03"/>
<path fill-rule="evenodd" clip-rule="evenodd" d="M-83.9187 447.281C-108.98 475.919 -106.142 519.504 -77.5803 544.632C-49.0188 569.76 -5.54928 566.914 19.5116 538.277C44.5725 509.639 41.7347 466.054 13.1732 440.926C-15.3883 415.798 -58.8579 418.643 -83.9187 447.281ZM-104.333 429.322C-139.286 469.264 -135.328 530.054 -95.4922 565.1C-55.6564 600.147 4.97216 596.178 39.9255 556.236C74.8788 516.294 70.9208 455.504 31.085 420.457C-8.75074 385.411 -69.3793 389.379 -104.333 429.322Z" fill="url(#paint3_linear_1_141)" fill-opacity="0.03"/>
<path fill-rule="evenodd" clip-rule="evenodd" d="M71.2623 99.1343C95.2722 81.4149 100.41 47.5347 82.7375 23.4608C65.0652 -0.613048 31.2752 -5.76438 7.26535 11.955C-16.7445 29.6744 -21.8821 63.5546 -4.20987 87.6285C13.4624 111.702 47.2525 116.854 71.2623 99.1343ZM83.8933 116.341C117.381 91.6268 124.546 44.3729 99.8982 10.7962C75.25 -22.7806 28.1218 -29.9653 -5.36563 -5.25141C-38.8531 19.4625 -46.0187 66.7164 -21.3705 100.293C3.27764 133.87 50.4059 141.055 83.8933 116.341Z" fill="url(#paint4_linear_1_141)" fill-opacity="0.03"/>
</g>
<defs>
<linearGradient id="paint0_linear_1_141" x1="187.5" y1="0" x2="188" y2="1554" gradientUnits="userSpaceOnUse">
<stop stop-color="#083270"/>
<stop offset="1" stop-color="#74C6EC"/>
</linearGradient>
<linearGradient id="paint1_linear_1_141" x1="333.718" y1="171.5" x2="378.814" y2="35.5716" gradientUnits="userSpaceOnUse">
<stop stop-color="white"/>
<stop offset="1" stop-color="#2E6CC4"/>
</linearGradient>
<linearGradient id="paint2_linear_1_141" x1="212.172" y1="678.117" x2="297.058" y2="822.262" gradientUnits="userSpaceOnUse">
<stop stop-color="white"/>
<stop offset="1" stop-color="#2E6CC4"/>
</linearGradient>
<linearGradient id="paint3_linear_1_141" x1="-99.9096" y1="433.213" x2="-33.9741" y2="545.179" gradientUnits="userSpaceOnUse">
<stop stop-color="white"/>
<stop offset="1" stop-color="#2E6CC4"/>
</linearGradient>
<linearGradient id="paint4_linear_1_141" x1="81.1566" y1="112.613" x2="49.485" y2="15.6629" gradientUnits="userSpaceOnUse">
<stop stop-color="white"/>
<stop offset="1" stop-color="#2E6CC4"/>
</linearGradient>
<clipPath id="clip0_1_141">
<rect width="375" height="812" fill="white"/>
</clipPath>
</defs>
</svg>
